<svg id="Layer_1" data-name="Layer 1" xmlns="http://www.w3.org/2000/svg" viewBox="0 0 1064.3 446.5"><defs><style>.cls-1,.cls-2,.cls-3{fill:#006a80;}.cls-2,.cls-3{isolation:isolate;font-size:64.05px;font-family:ArialMT, Arial;}.cls-2{letter-spacing:-0.07em;}.cls-4{fill:none;stroke:#006a80;stroke-miterlimit:10;stroke-width:6px;}</style></defs><path class="cls-1" d="M362,121.7c-7.4,2.1-8.3,2.9-8.3,17v15.9a193,193,0,0,0,.8,20.1c-6.7,1.9-21,6.8-31.6,6.8-30.7,0-48.3-29.6-48.3-70.5,0-46.5,23.9-69.9,51.7-69.9,10.6,0,22.1,4.1,26.4,4.8.3,9.1,1.3,24.8,2.2,36.2l-5.1,1.4c-3.1-17.6-8-26.5-16-30.8-3-1.7-7.8-2.5-11.1-2.5-15.8,0-27.7,21.7-27.7,57.3,0,36.4,8.1,65.2,29.5,65.2,2.6,0,6-.6,8.4-2.9,2-1.9,3-5.4,3-11.8V139.8c0-14.5-1.8-15.9-12.8-18V114h39Z"/><path class="cls-1" d="M442.8,143.2c-.6,5.5-4.3,29.4-5.5,35.2H369.6V171c11.9-1.9,12.7-2.9,12.7-20.3v-79c0-17.6-1.6-18.8-10.4-20.1V43.9h42.4c13.7,0,18.3-.2,20.1-.4.1,3.7.8,20.7,1.3,33.5l-5.1,1c-1.2-7-3.4-15.5-5.6-19.2-2.4-4.1-4-5.4-10.7-5.4h-8.5c-5,0-5.5.4-5.5,7.4V104H413c7.3,0,8.6-3.1,10.6-17.8h5.1v46.1h-5.1c-2.1-15.3-3.1-17.8-10.7-17.8H400.3v35.6c0,14.3.3,18.6,8.3,18.8h9.3c7.3,0,9.3-1.4,12.1-7,3.3-6,5.9-13.6,8-20.7Z"/><path class="cls-1" d="M497.7,41c24.1,0,43.9,27.9,43.9,68.7,0,44.1-19.8,71.8-44.5,71.8-26.1,0-45-30.2-45-70.1C452,76,468,41,497.7,41Zm-2,9.1c-13.3,0-23.1,20.7-23.1,57.3,0,35,8.7,64.9,26.4,64.9,12.4,0,22.1-19,22.1-56.9,0-40.9-10.2-65.3-25.4-65.3Z"/><path class="cls-1" d="M635,179.6c-1.3,0-2.6-.1-3.9-.2-16.6-1.2-21.4-6.8-25.3-15.5-5.2-11.4-9-24-13.4-36.5-2-5.5-3.8-6.8-8-6.8l-2.6-.2v30.2c0,16.8,1.3,18.2,11.1,20.1v7.7h-40v-7.6c9.9-1.7,11.1-3.3,11.1-20.1V71.4c0-16.3-1.3-18.6-11.1-19.9V43.9h38c11.6,0,18.3,2.1,23.6,7.9,5.2,5.6,8.7,14.7,8.7,27.5,0,18.4-7.7,28.1-16.3,33.5,2,6.2,7,19.6,11,29.2a191.28,191.28,0,0,0,9.9,21.6c3,5.4,4.4,7,8.2,9.1Zm-49.7-67.7c5.6,0,9.9-1.4,12.8-5.4,4.3-5.8,6.1-13.7,6.1-24.2,0-21.9-8-29.8-15.3-29.8-3.5,0-5.2.8-6,2.1s-1.2,3.7-1.2,7.9v49.4Z"/><path class="cls-1" d="M727.4,121.7c-7.4,2.1-8.4,2.9-8.4,17v15.9a193,193,0,0,0,.8,20.1c-6.7,1.9-21,6.8-31.6,6.8-30.7,0-48.3-29.6-48.3-70.5,0-46.5,23.9-69.9,51.7-69.9,10.6,0,22.1,4.1,26.4,4.8.3,9.1,1.3,24.8,2.2,36.2l-5.1,1.4C712,65.9,707.1,57,699,52.7c-3-1.7-7.8-2.5-11.1-2.5-15.8,0-27.7,21.7-27.7,57.3,0,36.4,8.1,65.2,29.5,65.2,2.6,0,6-.6,8.4-2.9,2-1.9,3-5.4,3-11.8V139.8c0-14.5-1.8-15.9-12.8-18V114h39Z"/><path class="cls-1" d="M808.2,143.2c-.6,5.5-4.3,29.4-5.5,35.2H735V171c11.9-1.9,12.7-2.9,12.7-20.3v-79c0-17.6-1.6-18.8-10.4-20.1V43.9h42.4c13.7,0,18.3-.2,20.1-.4.1,3.7.8,20.7,1.3,33.5L796,78c-1.2-7-3.4-15.5-5.6-19.2-2.3-4.1-4-5.4-10.7-5.4h-8.4c-5,0-5.5.4-5.5,7.4v43.3h12.8c7.3,0,8.6-3.1,10.6-17.8h5.1v46.1h-5.1c-2.1-15.3-3.1-17.8-10.7-17.8H765.8v35.6c0,14.3.3,18.6,8.4,18.8h9.3c7.3,0,9.3-1.4,12.1-7,3.3-6,5.9-13.6,8-20.7Z"/><path class="cls-1" d="M105.9,251.2c16.7,0,29,5.6,37.3,18,6.7,9.7,11.7,24.2,11.7,45.1,0,23.8-6.3,42-16.3,54-9.7,11.6-22.1,17.4-37,17.4H65.9V378c9.9-1.2,11.1-3.1,11.1-20.3V279.1c0-17.4-1.4-19-11.1-20.3v-7.7ZM95.1,356.3c0,14.7,2.3,19.6,11.9,19.6,17.6,0,27.8-19.4,27.8-58.6,0-19.6-3.4-36.8-9.4-45.7-5.5-8.7-12.3-11.6-21-11.6-4.8,0-7.1,1.7-7.8,2.9-1.2,1.9-1.4,5.4-1.4,11.4Z"/><path class="cls-1" d="M238,350.5c-.6,5.5-4.3,29.4-5.5,35.2H164.8v-7.4c11.9-1.9,12.7-2.9,12.7-20.3V279c0-17.6-1.6-18.8-10.4-20.1v-7.7h42.4c13.7,0,18.3-.2,20.1-.4.1,3.7.8,20.7,1.3,33.5l-5.1,1c-1.2-7-3.4-15.5-5.6-19.2-2.3-4.1-4-5.4-10.7-5.4H201c-5,0-5.5.4-5.5,7.4v43.2h12.8c7.3,0,8.6-3.1,10.6-17.8H224v46.1h-5.1c-2.1-15.3-3.1-17.8-10.7-17.8H195.5v35.6c0,14.3.3,18.6,8.4,18.8h9.3c7.3,0,9.3-1.4,12.1-7,3.3-6,5.9-13.6,8-20.7Z"/><path class="cls-1" d="M328.2,350.1c-1.8,10.3-5.2,26.1-7.3,33.3-3.4,1.2-14.1,5.4-24,5.4-35.1,0-49.6-35.8-49.6-68.7,0-42.8,20.6-71.8,52-71.8,11.4,0,21.4,4.3,24.7,5,.6,9.7,1.6,25,2.5,34.1l-5.2,1.4c-2.7-16.1-6.7-23.8-13.6-28.1-3.1-2.1-7.8-2.9-11.4-2.9-18.9,0-28.4,25-28.4,57.5,0,37.8,12.3,63.5,30.1,63.5,11,0,18.3-9.1,25.3-31.8Z"/><path class="cls-1" d="M385,248.3c24.1,0,43.9,27.9,43.9,68.7,0,44.1-19.8,71.8-44.5,71.8-26.1,0-45-30.2-45-70.1C339.3,283.3,355.2,248.3,385,248.3Zm-2,9.1c-13.3,0-23.1,20.7-23.1,57.3,0,35,8.7,64.9,26.4,64.9,12.4,0,22-19,22-56.9,0-40.9-10.1-65.3-25.3-65.3Z"/><path class="cls-1" d="M522.3,386.9a25.49,25.49,0,0,1-3.9-.2c-16.6-1.2-21.4-6.8-25.3-15.5-5.2-11.4-9-24-13.4-36.4-2-5.6-3.8-6.8-8-6.8l-2.6-.2V358c0,16.8,1.3,18.2,11.1,20.1v7.7H440.3V378c9.9-1.6,11.1-3.3,11.1-20.1V278.6c0-16.3-1.3-18.6-11.1-19.9V251H478c11.6,0,18.3,2.1,23.6,7.9,5.2,5.5,8.7,14.7,8.7,27.5,0,18.4-7.7,28.1-16.3,33.5,2,6.2,7,19.7,11,29.2a199.74,199.74,0,0,0,9.9,21.5c3,5.4,4.4,7,8.2,9.1Zm-49.8-67.6c5.6,0,9.9-1.4,12.8-5.4,4.3-5.8,6.1-13.6,6.1-24.2,0-21.9-8-29.8-15.3-29.8-3.5,0-5.2.8-6,2.1s-1.2,3.7-1.2,7.9v49.4Z"/><path class="cls-1" d="M576.6,385.7V378c8.2-1.9,8.2-4.1,6.4-13-1.3-6.2-3.4-15.5-5.3-23.8H552.3c-1.4,6.4-3.3,14.3-4.6,20.7-2.7,13,.4,14.7,10.7,16.1v7.7H526.2V378c8.2-1.6,10.3-3.5,14.7-20.9l27.2-106.9,6.3-1.9c8.4,36,17.2,72.8,25.7,107.4,4.8,19.2,6,20.7,14.5,22.3v7.7Zm-11.5-98.9c-3.8,14.9-7.4,28.7-10.7,43.8h20.7Z"/><path class="cls-1" d="M680.8,287a83.76,83.76,0,0,0-5.6-20.3c-2.3-4.3-3.4-6-11.1-6h-8.4V358c0,17.4,1.3,18.6,12.9,20.1v7.7H625.2V378c11.1-1.4,12.3-2.7,12.3-20.1V260.7h-8c-7.3,0-9.4,1.9-11.9,6.8-1.8,3.9-3.7,11.4-5.3,19.6h-5c.9-15.1,1.8-31.2,2.1-41.2h3.9c2,4.8,3.5,5.2,7.4,5.2H673c3.5,0,5.3-1.2,7.6-5.2h3.8c.1,8.7.6,26.9,1.3,40.3Z"/><path class="cls-1" d="M748.9,251.7c24.1,0,43.8,27.9,43.8,68.7,0,44.1-19.8,71.8-44.5,71.8-26.1,0-45-30.2-45-70.1C703.2,286.7,719.1,251.7,748.9,251.7Zm-2,9.1c-13.3,0-23,20.7-23,57.3,0,35,8.7,64.9,26.4,64.9,12.4,0,22.1-19,22.1-56.9-.1-40.9-10.3-65.3-25.5-65.3Z"/><text class="cls-2" transform="translate(915.34 391.25) scale(0.97 1)">L</text><text class="cls-3" transform="translate(949.33 391.25) scale(0.97 1)">t</text><text class="cls-3" transform="translate(968.47 391.25) scale(0.97 1)">d</text><text class="cls-3" transform="translate(998.79 391.25) scale(0.97 1)">.</text><rect class="cls-4" x="3" y="3" width="1058.3" height="440.5"/><path class="cls-1" d="M891.1,389.8a25.49,25.49,0,0,1-3.9-.2c-16.6-1.2-21.4-6.8-25.3-15.5-5.2-11.4-9-24-13.4-36.4-2-5.6-3.8-6.8-8-6.8l-2.6-.2v30.2c0,16.8,1.3,18.2,11.1,20.1v7.7H809V381c9.9-1.6,11.1-3.3,11.1-20.1V281.6c0-16.3-1.3-18.6-11.1-19.9V254h37.8c11.6,0,18.3,2.1,23.6,7.9,5.2,5.5,8.7,14.7,8.7,27.5,0,18.4-7.7,28.1-16.3,33.5,2,6.2,7,19.7,11,29.2a199.74,199.74,0,0,0,9.9,21.5c3,5.4,4.4,7,8.2,9.1Zm-49.7-67.6c5.6,0,9.9-1.4,12.8-5.4,4.3-5.8,6.1-13.6,6.1-24.2,0-21.9-8-29.8-15.3-29.8-3.5,0-5.2.8-6,2.1s-1.2,3.7-1.2,7.9v49.4Z"/></svg>