<?xml version="1.0" encoding="utf-8"?>
<!-- Generator: Adobe Illustrator 26.0.3, SVG Export Plug-In . SVG Version: 6.00 Build 0)  -->
<svg version="1.1" id="Layer_1" xmlns="http://www.w3.org/2000/svg" xmlns:xlink="http://www.w3.org/1999/xlink" x="0px" y="0px"
	 viewBox="0 0 1064.3 446.5" style="enable-background:new 0 0 1064.3 446.5;" xml:space="preserve">
<style type="text/css">
	.st0{fill:#006A80;}
	.st1{font-family:'ArialMT';}
	.st2{font-size:64.048px;}
	.st3{letter-spacing:-2.4;}
	.st4{fill:none;stroke:#006A80;stroke-width:6;stroke-miterlimit:10;}
</style>
<path class="st0" d="M362,121.7c-7.4,2.1-8.3,2.9-8.3,17v15.9c-0.1,6.7,0.2,13.4,0.8,20.1c-6.7,1.9-21,6.8-31.6,6.8
	c-30.7,0-48.3-29.6-48.3-70.5c0-46.5,23.9-69.9,51.7-69.9c10.6,0,22.1,4.1,26.4,4.8c0.3,9.1,1.3,24.8,2.2,36.2l-5.1,1.4
	c-3.1-17.6-8-26.5-16-30.8c-3-1.7-7.8-2.5-11.1-2.5c-15.8,0-27.7,21.7-27.7,57.3c0,36.4,8.1,65.2,29.5,65.2c2.6,0,6-0.6,8.4-2.9
	c2-1.9,3-5.4,3-11.8v-18.2c0-14.5-1.8-15.9-12.8-18V114h39L362,121.7z"/>
<path class="st0" d="M442.8,143.2c-0.6,5.5-4.3,29.4-5.5,35.2h-67.7v-7.4c11.9-1.9,12.7-2.9,12.7-20.3v-79
	c0-17.6-1.6-18.8-10.4-20.1v-7.7h42.4c13.7,0,18.3-0.2,20.1-0.4c0.1,3.7,0.8,20.7,1.3,33.5l-5.1,1c-1.2-7-3.4-15.5-5.6-19.2
	c-2.4-4.1-4-5.4-10.7-5.4h-8.5c-5,0-5.5,0.4-5.5,7.4v43.2H413c7.3,0,8.6-3.1,10.6-17.8h5.1v46.1h-5.1c-2.1-15.3-3.1-17.8-10.7-17.8
	h-12.6v35.6c0,14.3,0.3,18.6,8.3,18.8h9.3c7.3,0,9.3-1.4,12.1-7c3.3-6,5.9-13.6,8-20.7L442.8,143.2z"/>
<path class="st0" d="M497.7,41c24.1,0,43.9,27.9,43.9,68.7c0,44.1-19.8,71.8-44.5,71.8c-26.1,0-45-30.2-45-70.1
	C452,76,468,41,497.7,41z M495.7,50.1c-13.3,0-23.1,20.7-23.1,57.3c0,35,8.7,64.9,26.4,64.9c12.4,0,22.1-19,22.1-56.9
	C521.1,74.5,510.9,50.1,495.7,50.1L495.7,50.1z"/>
<path class="st0" d="M635,179.6c-1.3,0-2.6-0.1-3.9-0.2c-16.6-1.2-21.4-6.8-25.3-15.5c-5.2-11.4-9-24-13.4-36.5
	c-2-5.5-3.8-6.8-8-6.8l-2.6-0.2v30.2c0,16.8,1.3,18.2,11.1,20.1v7.7h-40v-7.6c9.9-1.7,11.1-3.3,11.1-20.1V71.4
	c0-16.3-1.3-18.6-11.1-19.9v-7.6h38c11.6,0,18.3,2.1,23.6,7.9c5.2,5.6,8.7,14.7,8.7,27.5c0,18.4-7.7,28.1-16.3,33.5
	c2,6.2,7,19.6,11,29.2c2.8,7.4,6.2,14.6,9.9,21.6c3,5.4,4.4,7,8.2,9.1L635,179.6z M585.3,111.9c5.6,0,9.9-1.4,12.8-5.4
	c4.3-5.8,6.1-13.7,6.1-24.2c0-21.9-8-29.8-15.3-29.8c-3.5,0-5.2,0.8-6,2.1c-0.8,1.2-1.2,3.7-1.2,7.9v49.4L585.3,111.9z"/>
<path class="st0" d="M727.4,121.7c-7.4,2.1-8.4,2.9-8.4,17v15.9c-0.1,6.7,0.2,13.4,0.8,20.1c-6.7,1.9-21,6.8-31.6,6.8
	c-30.7,0-48.3-29.6-48.3-70.5c0-46.5,23.9-69.9,51.7-69.9c10.6,0,22.1,4.1,26.4,4.8c0.3,9.1,1.3,24.8,2.2,36.2l-5.1,1.4
	c-3.1-17.6-8-26.5-16.1-30.8c-3-1.7-7.8-2.5-11.1-2.5c-15.8,0-27.7,21.7-27.7,57.3c0,36.4,8.1,65.2,29.5,65.2c2.6,0,6-0.6,8.4-2.9
	c2-1.9,3-5.4,3-11.8v-18.2c0-14.5-1.8-15.9-12.8-18V114h39L727.4,121.7z"/>
<path class="st0" d="M808.2,143.2c-0.6,5.5-4.3,29.4-5.5,35.2H735v-7.4c11.9-1.9,12.7-2.9,12.7-20.3v-79c0-17.6-1.6-18.8-10.4-20.1
	v-7.7h42.4c13.7,0,18.3-0.2,20.1-0.4c0.1,3.7,0.8,20.7,1.3,33.5l-5.1,1c-1.2-7-3.4-15.5-5.6-19.2c-2.3-4.1-4-5.4-10.7-5.4h-8.4
	c-5,0-5.5,0.4-5.5,7.4v43.3h12.8c7.3,0,8.6-3.1,10.6-17.8h5.1v46.1h-5.1c-2.1-15.3-3.1-17.8-10.7-17.8h-12.7v35.6
	c0,14.3,0.3,18.6,8.4,18.8h9.3c7.3,0,9.3-1.4,12.1-7c3.3-6,5.9-13.6,8-20.7L808.2,143.2z"/>
<path class="st0" d="M105.9,251.2c16.7,0,29,5.6,37.3,18c6.7,9.7,11.7,24.2,11.7,45.1c0,23.8-6.3,42-16.3,54
	c-9.7,11.6-22.1,17.4-37,17.4H65.9V378c9.9-1.2,11.1-3.1,11.1-20.3v-78.6c0-17.4-1.4-19-11.1-20.3v-7.7L105.9,251.2z M95.1,356.3
	c0,14.7,2.3,19.6,11.9,19.6c17.6,0,27.8-19.4,27.8-58.6c0-19.6-3.4-36.8-9.4-45.7c-5.5-8.7-12.3-11.6-21-11.6
	c-4.8,0-7.1,1.7-7.8,2.9c-1.2,1.9-1.4,5.4-1.4,11.4L95.1,356.3z"/>
<path class="st0" d="M238,350.5c-0.6,5.5-4.3,29.4-5.5,35.2h-67.7v-7.4c11.9-1.9,12.7-2.9,12.7-20.3v-79c0-17.6-1.6-18.8-10.4-20.1
	v-7.7h42.4c13.7,0,18.3-0.2,20.1-0.4c0.1,3.7,0.8,20.7,1.3,33.5l-5.1,1c-1.2-7-3.4-15.5-5.6-19.2c-2.3-4.1-4-5.4-10.7-5.4H201
	c-5,0-5.5,0.4-5.5,7.4v43.2h12.8c7.3,0,8.6-3.1,10.6-17.8h5.1v46.1h-5.1c-2.1-15.3-3.1-17.8-10.7-17.8h-12.7v35.6
	c0,14.3,0.3,18.6,8.4,18.8h9.3c7.3,0,9.3-1.4,12.1-7c3.3-6,5.9-13.6,8-20.7L238,350.5z"/>
<path class="st0" d="M328.2,350.1c-1.8,10.3-5.2,26.1-7.3,33.3c-3.4,1.2-14.1,5.4-24,5.4c-35.1,0-49.6-35.8-49.6-68.7
	c0-42.8,20.6-71.8,52-71.8c11.4,0,21.4,4.3,24.7,5c0.6,9.7,1.6,25,2.5,34.1l-5.2,1.4c-2.7-16.1-6.7-23.8-13.6-28.1
	c-3.1-2.1-7.8-2.9-11.4-2.9c-18.9,0-28.4,25-28.4,57.5c0,37.8,12.3,63.5,30.1,63.5c11,0,18.3-9.1,25.3-31.8L328.2,350.1z"/>
<path class="st0" d="M385,248.3c24.1,0,43.9,27.9,43.9,68.7c0,44.1-19.8,71.8-44.5,71.8c-26.1,0-45-30.2-45-70.1
	C339.3,283.3,355.2,248.3,385,248.3z M383,257.4c-13.3,0-23.1,20.7-23.1,57.3c0,35,8.7,64.9,26.4,64.9c12.4,0,22-19,22-56.9
	C408.3,281.8,398.2,257.4,383,257.4L383,257.4z"/>
<path class="st0" d="M522.3,386.9c-1.3,0-2.6,0-3.9-0.2c-16.6-1.2-21.4-6.8-25.3-15.5c-5.2-11.4-9-24-13.4-36.4
	c-2-5.6-3.8-6.8-8-6.8l-2.6-0.2V358c0,16.8,1.3,18.2,11.1,20.1v7.7h-39.9V378c9.9-1.6,11.1-3.3,11.1-20.1v-79.3
	c0-16.3-1.3-18.6-11.1-19.9v-7.7H478c11.6,0,18.3,2.1,23.6,7.9c5.2,5.5,8.7,14.7,8.7,27.5c0,18.4-7.7,28.1-16.3,33.5
	c2,6.2,7,19.7,11,29.2c2.9,7.4,6.2,14.6,9.9,21.5c3,5.4,4.4,7,8.2,9.1L522.3,386.9z M472.5,319.3c5.6,0,9.9-1.4,12.8-5.4
	c4.3-5.8,6.1-13.6,6.1-24.2c0-21.9-8-29.8-15.3-29.8c-3.5,0-5.2,0.8-6,2.1c-0.8,1.2-1.2,3.7-1.2,7.9v49.4H472.5z"/>
<path class="st0" d="M576.6,385.7V378c8.2-1.9,8.2-4.1,6.4-13c-1.3-6.2-3.4-15.5-5.3-23.8h-25.4c-1.4,6.4-3.3,14.3-4.6,20.7
	c-2.7,13,0.4,14.7,10.7,16.1v7.7h-32.2V378c8.2-1.6,10.3-3.5,14.7-20.9l27.2-106.9l6.3-1.9c8.4,36,17.2,72.8,25.7,107.4
	c4.8,19.2,6,20.7,14.5,22.3v7.7H576.6z M565.1,286.8c-3.8,14.9-7.4,28.7-10.7,43.8h20.7L565.1,286.8z"/>
<path class="st0" d="M680.8,287c-1-7-2.9-13.8-5.6-20.3c-2.3-4.3-3.4-6-11.1-6h-8.4V358c0,17.4,1.3,18.6,12.9,20.1v7.7h-43.4V378
	c11.1-1.4,12.3-2.7,12.3-20.1v-97.2h-8c-7.3,0-9.4,1.9-11.9,6.8c-1.8,3.9-3.7,11.4-5.3,19.6h-5c0.9-15.1,1.8-31.2,2.1-41.2h3.9
	c2,4.8,3.5,5.2,7.4,5.2H673c3.5,0,5.3-1.2,7.6-5.2h3.8c0.1,8.7,0.6,26.9,1.3,40.3L680.8,287z"/>
<path class="st0" d="M748.9,251.7c24.1,0,43.8,27.9,43.8,68.7c0,44.1-19.8,71.8-44.5,71.8c-26.1,0-45-30.2-45-70.1
	C703.2,286.7,719.1,251.7,748.9,251.7z M746.9,260.8c-13.3,0-23,20.7-23,57.3c0,35,8.7,64.9,26.4,64.9c12.4,0,22.1-19,22.1-56.9
	C772.3,285.2,762.1,260.8,746.9,260.8L746.9,260.8z"/>
<g>
	<text transform="matrix(0.823 0 0 1 915.3447 391.2529)" class="st0 st1 st2 st3">L</text>
	<text transform="matrix(0.823 0 0 1 940.0107 391.2529)" class="st0 st1 st2">t</text>
	<text transform="matrix(0.823 0 0 1 957.1504 391.2529)" class="st0 st1 st2">d</text>
	<text transform="matrix(0.823 0 0 1 986.3545 391.2529)" class="st0 st1 st2">.</text>
</g>
<rect x="3" y="3" class="st4" width="1058.3" height="440.5"/>
<path class="st0" d="M891.1,389.8c-1.3,0-2.6,0-3.9-0.2c-16.6-1.2-21.4-6.8-25.3-15.5c-5.2-11.4-9-24-13.4-36.4
	c-2-5.6-3.8-6.8-8-6.8l-2.6-0.2v30.2c0,16.8,1.3,18.2,11.1,20.1v7.7H809V381c9.9-1.6,11.1-3.3,11.1-20.1v-79.3
	c0-16.3-1.3-18.6-11.1-19.9v-7.7h37.8c11.6,0,18.3,2.1,23.6,7.9c5.2,5.5,8.7,14.7,8.7,27.5c0,18.4-7.7,28.1-16.3,33.5
	c2,6.2,7,19.7,11,29.2c2.9,7.4,6.2,14.6,9.9,21.5c3,5.4,4.4,7,8.2,9.1L891.1,389.8z M841.4,322.2c5.6,0,9.9-1.4,12.8-5.4
	c4.3-5.8,6.1-13.6,6.1-24.2c0-21.9-8-29.8-15.3-29.8c-3.5,0-5.2,0.8-6,2.1c-0.8,1.2-1.2,3.7-1.2,7.9v49.4H841.4z"/>
</svg>
